<?xml version="1.0" encoding="utf-8"?>
<!-- Generator: Adobe Illustrator 20.0.0, SVG Export Plug-In . SVG Version: 6.00 Build 0)  -->
<svg version="1.1" id="Layer_1" xmlns="http://www.w3.org/2000/svg" xmlns:xlink="http://www.w3.org/1999/xlink" x="0px" y="0px"
	 viewBox="0 0 157.8 17.6" style="enable-background:new 0 0 157.8 17.6;" xml:space="preserve">
<style type="text/css">
	.st0{fill:#FFFFFF;}
</style>
<g>
	<path class="st0" d="M3,5.9c-1.6,0-2.9,1.3-2.9,2.9v5.9c0,1.6,1.3,2.9,2.9,2.9h16.2c1.6,0,2.9-1.3,2.9-2.9V2.9
		c0-1.6-1.3-2.9-2.9-2.9H0v2.9h18.1c0.5,0,0.9,0.4,0.9,0.9v9.8c0,0.5-0.4,0.9-0.9,0.9H3.9c-0.5,0-0.9-0.4-0.9-0.9v-4
		c0-0.5,0.4-0.9,0.9-0.9h12.3V5.9H3L3,5.9z M153.9,13.5c0.2,0.2,0.8,0.7,1.9,0.7c1.2,0,2-0.9,2-1.8c0-1.2-1.1-1.7-1.7-1.9
		c-0.7-0.3-0.9-0.5-0.9-0.8c0-0.2,0.2-0.4,0.5-0.4c0.5,0,1.1,0.5,1.2,0.5c0.1,0.1,0.2,0,0.3-0.1l0.4-0.7c0-0.1,0.1-0.2-0.1-0.3
		c-0.3-0.2-0.9-0.6-1.8-0.6c-1.3,0-2,0.8-2,1.7c0,1,0.9,1.6,1.6,1.9c0.6,0.2,0.9,0.5,0.9,0.9c0,0.3-0.2,0.5-0.6,0.5
		c-0.6,0-1.2-0.4-1.2-0.5c-0.1,0-0.2-0.1-0.3,0.1l-0.4,0.7C153.8,13.4,153.9,13.4,153.9,13.5L153.9,13.5z M148.8,10.7V9.4h1.3
		c0.3,0,0.6,0.3,0.6,0.6c0,0.4-0.3,0.7-0.6,0.7H148.8L148.8,10.7z M147.6,13.9c0,0.1,0.1,0.2,0.2,0.2h1c0.1,0,0.2-0.1,0.2-0.2v-2.2
		h0.6l1.1,2.2l0.1,0.1h1.1c0.1,0,0.2-0.1,0.1-0.2l-1.2-2.2c0.7-0.3,1.3-0.9,1.3-1.7c0-1-0.8-1.8-1.8-1.8h-2.5
		c-0.1,0-0.2,0.1-0.2,0.2L147.6,13.9L147.6,13.9z M141.2,11.1c0-0.9,0.8-1.7,1.7-1.7s1.7,0.8,1.7,1.7s-0.8,1.7-1.7,1.7
		C141.9,12.8,141.2,12,141.2,11.1L141.2,11.1z M139.8,11.1c0,1.7,1.3,3,3,3s3-1.3,3-3s-1.4-3.1-3-3.1S139.8,9.4,139.8,11.1
		L139.8,11.1z M134.9,13.5c0.1,0.2,0.6,0.6,1.3,0.6c1,0,1.8-0.7,1.8-1.9v-4c0-0.1-0.1-0.2-0.2-0.2h-1c-0.1,0-0.2,0.1-0.2,0.2v4
		c0,0.4-0.3,0.6-0.5,0.6s-0.3-0.1-0.4-0.2c-0.1-0.1-0.2-0.1-0.2,0l-0.6,0.6C134.9,13.4,134.9,13.5,134.9,13.5L134.9,13.5z M130.4,12
		l0.6-1.4l0,0l0.6,1.4H130.4L130.4,12z M128.4,14.1h0.9c0.2,0,0.3-0.1,0.3-0.2l0.3-0.7h2.3l0.3,0.7c0.1,0.2,0.1,0.2,0.3,0.2h0.9
		c0.1,0,0.2-0.1,0.1-0.2l-2.7-5.7c0-0.1-0.1-0.1-0.1-0.1h-0.1c-0.1,0-0.1,0-0.1,0.1l-2.7,5.7C128.2,14,128.3,14.1,128.4,14.1
		L128.4,14.1z M120.4,13.9c0,0.1,0.1,0.2,0.2,0.2h1c0.1,0,0.2-0.1,0.2-0.1l0.4-2.6l0,0l1.4,2.7c0,0.1,0.1,0.1,0.1,0.1h0.2
		c0,0,0.1,0,0.1-0.1l1.4-2.7l0,0l0.4,2.6c0,0.1,0.1,0.1,0.2,0.1h1c0.1,0,0.2-0.1,0.2-0.2l-1-5.7c0-0.1-0.1-0.1-0.2-0.1h-0.1
		c0,0-0.1,0-0.1,0.1l-2,3.7l0,0l-2-3.7c0-0.1-0.1-0.1-0.1-0.1h-0.1c-0.1,0-0.1,0.1-0.2,0.1L120.4,13.9L120.4,13.9z M110.4,13.9
		c0,0.1,0.1,0.2,0.2,0.2h1c0.1,0,0.2-0.1,0.2-0.2v-3.2l0,0l3.3,3.4h0.1h0.1c0.1,0,0.2-0.1,0.2-0.2V8.2c0-0.1-0.1-0.2-0.2-0.2h-1
		c-0.1,0-0.2,0.1-0.2,0.2v3l0,0l-3.4-3.3h-0.2c-0.1,0-0.2,0.1-0.2,0.2L110.4,13.9L110.4,13.9z M104,11.1c0-0.9,0.8-1.7,1.7-1.7
		c0.9,0,1.7,0.8,1.7,1.7s-0.8,1.7-1.7,1.7C104.8,12.8,104,12,104,11.1L104,11.1z M102.7,11.1c0,1.7,1.3,3,3,3s3-1.3,3-3
		s-1.4-3.1-3-3.1C104,8,102.7,9.4,102.7,11.1L102.7,11.1z M95.9,13.9c0,0.1,0.1,0.2,0.2,0.2h1c0.1,0,0.2-0.1,0.2-0.2v-2.2h2.4v2.2
		c0,0.1,0.1,0.2,0.2,0.2h1c0.1,0,0.2-0.1,0.2-0.2V8.3c0-0.1-0.1-0.2-0.2-0.2h-1c-0.1,0-0.2,0.1-0.2,0.2v2.1h-2.4V8.3
		c0-0.1-0.1-0.2-0.2-0.2h-1c-0.1,0-0.2,0.1-0.2,0.2V13.9L95.9,13.9z M91.4,13.9c0,0.1,0.1,0.2,0.2,0.2h1c0.1,0,0.2-0.1,0.2-0.2V9.4
		H94c0.1,0,0.2-0.1,0.2-0.2V8.3c0-0.1-0.1-0.2-0.2-0.2h-3.8c-0.1,0-0.2,0.1-0.2,0.2v0.9c0,0.1,0.1,0.2,0.2,0.2h1.2L91.4,13.9
		L91.4,13.9z M85.7,12l0.6-1.4l0,0l0.6,1.4H85.7L85.7,12z M83.6,14.1h0.9c0.2,0,0.3-0.1,0.3-0.2l0.3-0.7h2.3l0.3,0.7
		c0.1,0.2,0.1,0.2,0.3,0.2h0.9c0.1,0,0.2-0.1,0.1-0.2l-2.6-5.7c0-0.1-0.1-0.1-0.1-0.1h-0.1c-0.1,0-0.1,0-0.1,0.1l-2.7,5.7
		C83.4,14,83.5,14.1,83.6,14.1L83.6,14.1z M79.1,10.7V9.4h1.3c0.3,0,0.6,0.3,0.6,0.6c0,0.4-0.3,0.7-0.6,0.7H79.1L79.1,10.7z
		 M77.7,13.9c0,0.1,0.1,0.2,0.2,0.2h1c0.1,0,0.2-0.1,0.2-0.2v-2.2h0.5l1.1,2.2l0.1,0.1h1.1c0.1,0,0.2-0.1,0.1-0.2l-1.2-2.2
		c0.7-0.3,1.3-0.9,1.3-1.7c0-1-0.8-1.8-1.8-1.8h-2.5c-0.1,0-0.2,0.1-0.2,0.2L77.7,13.9L77.7,13.9z M72.6,12l0.6-1.4l0,0l0.6,1.4
		H72.6L72.6,12z M70.5,14.1h0.9c0.2,0,0.3-0.1,0.3-0.2l0.3-0.7h2.3l0.3,0.7c0.1,0.2,0.1,0.2,0.3,0.2h0.9c0.1,0,0.2-0.1,0.1-0.2
		l-2.7-5.7c0-0.1-0.1-0.1-0.1-0.1H73c-0.1,0-0.1,0-0.1,0.1l-2.7,5.7C70.3,14,70.4,14.1,70.5,14.1L70.5,14.1z M62.6,13.9
		c0,0.1,0.1,0.2,0.2,0.2h1c0.1,0,0.2-0.1,0.2-0.1l0.4-2.6l0,0l1.4,2.7c0,0.1,0.1,0.1,0.1,0.1h0.2c0,0,0.1,0,0.1-0.1l1.4-2.7l0,0
		L68,14c0,0.1,0.1,0.1,0.2,0.1h1c0.1,0,0.2-0.1,0.2-0.2l-1-5.7c0-0.1-0.1-0.1-0.2-0.1h-0.1c0,0-0.1,0-0.1,0.1l-2,3.7l0,0l-2-3.7
		c0-0.1-0.1-0.1-0.1-0.1h-0.1c-0.1,0-0.1,0.1-0.2,0.1L62.6,13.9L62.6,13.9z M54.6,12.8V9.4h0.8c1,0,1.7,0.8,1.7,1.7
		c0,1-0.7,1.7-1.7,1.7L54.6,12.8L54.6,12.8z M53.3,13.9c0,0.1,0.1,0.2,0.2,0.2h2.1c1.6,0,3-1.3,3-3c0-1.6-1.3-3-3-3h-2.1
		c-0.1,0-0.2,0.1-0.2,0.2V13.9L53.3,13.9z M48.2,13.9c0,0.1,0.1,0.2,0.2,0.2h3.2c0.1,0,0.2-0.1,0.2-0.2V13c0-0.1-0.1-0.2-0.2-0.2h-2
		V8.3c0-0.1-0.1-0.2-0.2-0.2h-1c-0.1,0-0.2,0.1-0.2,0.2V13.9L48.2,13.9z M43,10.7V9.4h1.3c0.3,0,0.6,0.3,0.6,0.6
		c0,0.4-0.3,0.7-0.6,0.7H43L43,10.7z M41.7,13.9c0,0.1,0.1,0.2,0.2,0.2h1c0.1,0,0.2-0.1,0.2-0.2v-2.2h0.5l1.1,2.2l0.1,0.1h1.1
		c0.1,0,0.2-0.1,0.1-0.2l-1.2-2.2c0.7-0.3,1.3-0.9,1.3-1.7c0-1-0.8-1.8-1.8-1.8h-2.5c-0.1,0-0.2,0.1-0.2,0.2v5.6H41.7z M35.5,11.1
		c0-0.9,0.8-1.7,1.7-1.7s1.7,0.8,1.7,1.7s-0.8,1.7-1.7,1.7C36.3,12.8,35.5,12,35.5,11.1L35.5,11.1z M34.2,11.1c0,1.7,1.3,3,3,3
		s3-1.3,3-3S38.8,8,37.2,8C35.5,8,34.2,9.4,34.2,11.1L34.2,11.1z M27.9,14c0,0.1,0.1,0.1,0.2,0.1h0.1c0.1,0,0.1,0,0.1-0.1l1.5-3.5
		l0,0l1.5,3.5c0,0.1,0.1,0.1,0.1,0.1h0.1c0.1,0,0.1-0.1,0.2-0.1l1.6-5.7c0-0.1,0-0.2-0.2-0.2h-1c-0.1,0-0.1,0.1-0.2,0.1l-0.7,2.9
		l0,0l-1.3-3C29.9,8,29.8,8,29.8,8h-0.2c-0.1,0-0.1,0-0.1,0.1l-1.3,3l0,0l-0.6-2.8c0-0.1-0.1-0.1-0.2-0.1h-1c-0.1,0-0.2,0.1-0.2,0.2
		L27.9,14L27.9,14z M44.3,6.3C44.3,6.3,44.3,6.4,44.3,6.3l0.6,0.1c0,0,0.1,0,0.1-0.1V3.8h0.7c0.1,0,0.1,0,0.1-0.1V3.2
		c0,0,0-0.1-0.1-0.1h-2.1c-0.1,0-0.1,0-0.1,0.1v0.5c0,0,0,0.1,0.1,0.1h0.7V6.3L44.3,6.3z M41.3,6.3C41.3,6.3,41.3,6.4,41.3,6.3
		l0.6,0.1c0,0,0.1,0,0.1-0.1V3.8h0.7c0.1,0,0.1,0,0.1-0.1V3.2c0,0,0-0.1-0.1-0.1h-2.1c-0.1,0-0.1,0-0.1,0.1v0.5c0,0,0,0.1,0.1,0.1
		h0.7V6.3L41.3,6.3z M37.3,4.7c0-0.5,0.4-0.9,0.9-0.9s0.9,0.4,0.9,0.9s-0.4,0.9-0.9,0.9C37.7,5.7,37.3,5.2,37.3,4.7L37.3,4.7z
		 M36.5,4.7c0,0.9,0.7,1.7,1.7,1.7c0.9,0,1.7-0.7,1.7-1.7c0-0.9-0.7-1.7-1.7-1.7C37.3,3,36.5,3.8,36.5,4.7L36.5,4.7z M34.2,5.7V5
		h0.4C34.8,5,35,5.1,35,5.3s-0.2,0.3-0.3,0.3L34.2,5.7L34.2,5.7z M34.2,4.4V3.8h0.4c0.2,0,0.3,0.1,0.3,0.3s-0.1,0.3-0.3,0.3H34.2
		L34.2,4.4z M33.5,6.3C33.5,6.3,33.5,6.4,33.5,6.3l1.2,0.1c0.6,0,1-0.4,1-0.9c0-0.4-0.4-0.7-0.6-0.8c0.2-0.1,0.5-0.4,0.5-0.7
		c0-0.5-0.5-0.9-1-0.9h-1c-0.1,0-0.1,0-0.1,0.1V6.3L33.5,6.3z M31,5.7V5h0.4c0.2,0,0.4,0.1,0.4,0.3s-0.2,0.3-0.3,0.3L31,5.7L31,5.7z
		 M31,4.4V3.8h0.4c0.2,0,0.3,0.1,0.3,0.3s-0.1,0.3-0.3,0.3H31L31,4.4z M30.3,6.3C30.3,6.3,30.3,6.4,30.3,6.3l1.2,0.1
		c0.6,0,1-0.4,1-0.9c0-0.4-0.4-0.7-0.6-0.8c0.2-0.1,0.5-0.4,0.5-0.7c0-0.5-0.5-0.9-1-0.9h-1.1c-0.1,0-0.1,0-0.1,0.1L30.3,6.3
		L30.3,6.3z M27.6,5.2l0.3-0.8l0,0l0.4,0.8H27.6L27.6,5.2z M26.5,6.4H27c0.1,0,0.1-0.1,0.2-0.1l0.2-0.4h1.2l0.2,0.4
		c0,0.1,0.1,0.1,0.2,0.1h0.5c0.1,0,0.1-0.1,0.1-0.1l-1.5-3.1c0,0,0-0.1-0.1-0.1l0,0c0,0-0.1,0-0.1,0.1l-1.5,3.1
		C26.4,6.3,26.4,6.4,26.5,6.4L26.5,6.4z"/>
</g>
</svg>
